<svg xmlns="http://www.w3.org/2000/svg" version="1.1" xmlns:xlink="http://www.w3.org/1999/xlink" width="512" height="512" x="0" y="0" viewBox="0 0 64 64" style="enable-background:new 0 0 512 512" xml:space="preserve" class=""><g><g data-name="Layer 77"><path d="m4.83 53.14 10.22-.27a2 2 0 0 0 1.36-.58l33.46-33.41a9.05 9.05 0 0 0 0-12.78 9.05 9.05 0 0 0-12.78 0L3.68 39.51a2 2 0 0 0-.58 1.36l-.27 10.22a2 2 0 0 0 2 2.05zM39.92 8.93A5 5 0 1 1 47 16.05l-3 3.07L36.85 12zM7.07 41.78 34 14.83 41.14 22 14.2 48.9l-7.31.18zM60 56.54H4a2 2 0 0 0 0 4h56a2 2 0 0 0 0-4z" fill="#000000" opacity="1" data-original="#000000"></path></g></g></svg>