<svg xmlns="http://www.w3.org/2000/svg" version="1.1" xmlns:xlink="http://www.w3.org/1999/xlink" width="512" height="512" x="0" y="0" viewBox="0 0 24 24" style="enable-background:new 0 0 512 512" xml:space="preserve" class=""><g transform="matrix(1.5000000000000007,0,0,1.5000000000000007,-6.006250143051167,-5.74999976158144)"><path d="M14 8H7.4l2.3-2.3c.4-.4.4-1 0-1.4s-1-.4-1.4 0l-4 4s0 .1-.1.1c0 .1-.1.1-.1.2-.1.3-.1.5 0 .8 0 .1.1.1.1.2l.1.1 4 4c.4.4 1 .4 1.4 0 .4-.4.4-1 0-1.4L7.4 10H14c2.3 0 4 1.5 4 3.5S16.3 17 14 17H7c-.6 0-1 .4-1 1s.4 1 1 1h7c3.4 0 6-2.4 6-5.5S17.4 8 14 8z" fill="#000000" opacity="1" data-original="#000000" class=""></path></g></svg>